<?xml version="1.0" standalone="no"?>
<!DOCTYPE svg PUBLIC "-//W3C//DTD SVG 20010904//EN"
 "http://www.w3.org/TR/2001/REC-SVG-20010904/DTD/svg10.dtd">
<svg version="1.0" xmlns="http://www.w3.org/2000/svg"
 width="545.000000pt" height="545.000000pt" viewBox="0 0 545.000000 545.000000"
 preserveAspectRatio="xMidYMid meet">
<metadata>
Created by potrace 1.16, written by Peter Selinger 2001-2019
</metadata>
<g transform="translate(0.000000,545.000000) scale(0.100000,-0.100000)"
fill="#000000" stroke="none">
<path d="M0 5355 l0 -95 43 -1 42 -1 -35 -8 c-19 -5 -38 -6 -42 -4 -5 3 -8
-28 -8 -70 0 -50 4 -76 13 -79 10 -4 10 -6 0 -6 -20 -1 -16 -49 5 -54 16 -4
16 -5 0 -6 -16 -1 -18 -26 -17 -335 0 -254 3 -336 12 -339 9 -4 9 -6 0 -6 -10
-1 -13 -339 -13 -1617 l0 -1616 30 4 c16 3 30 1 30 -4 0 -4 -13 -8 -30 -8 -30
0 -30 0 -30 -59 l0 -60 60 1 c33 0 63 -2 67 -6 3 -3 -23 -6 -60 -6 l-66 0 0
-171 -1 -171 55 4 c30 1 55 0 55 -4 0 -5 -25 -8 -56 -8 -40 0 -55 -3 -52 -12
3 -7 18 -15 34 -18 26 -5 27 -6 7 -12 -12 -3 -26 -1 -32 5 -6 6 -10 -47 -10
-167 l-1 -176 32 -1 33 -1 -30 -7 -30 -6 -3 -118 -3 -117 2726 0 2725 1 0 44
c0 31 -5 47 -17 54 -17 10 -17 10 -1 11 17 0 18 138 18 2670 l0 2670 -2725 0
-2725 0 0 -95z m3350 -1623 c124 -45 114 -16 86 -258 -35 -303 -39 -344 -28
-344 5 0 31 7 57 15 27 8 50 13 51 12 3 -3 24 -165 24 -183 0 -6 -21 -43 -47
-80 -26 -38 -57 -98 -69 -134 l-21 -65 -40 3 -39 3 -18 -58 c-10 -32 -43 -100
-74 -151 -47 -80 -72 -108 -173 -198 l-118 -104 -242 0 -241 0 -126 121 c-85
81 -143 148 -179 202 -48 74 -83 156 -83 195 0 11 -8 13 -34 8 -34 -6 -35 -5
-45 31 -6 21 -11 43 -11 49 0 6 -21 50 -46 99 l-47 89 7 105 c4 58 8 106 10
108 1 2 26 -7 54 -19 28 -12 55 -18 59 -14 14 14 3 233 -23 449 -5 37 -3 47 9
47 8 0 47 18 87 40 l73 40 186 -35 c102 -20 219 -43 260 -51 68 -14 80 -13
170 5 294 61 436 92 440 96 11 11 61 2 131 -23z"/>
<path d="M2566 2562 c-72 -15 -82 -20 -99 -50 -21 -35 -13 -40 31 -19 37 18
377 17 410 -2 31 -17 37 -8 23 27 -11 27 -20 31 -94 46 -101 20 -169 19 -271
-2z"/>
</g>
</svg>
